<svg width="330" height="569" viewBox="0 0 330 569" fill="none" xmlns="http://www.w3.org/2000/svg">
<g style="mix-blend-mode:plus-darker">
<rect x="37.5698" y="141.314" width="193.492" height="92.7732" rx="46.3866" transform="rotate(-28.3778 37.5698 141.314)" fill="#A7D2DE" fill-opacity="0.5"/>
</g>
<g style="mix-blend-mode:plus-darker">
<rect x="112.896" y="15" width="227" height="93" rx="46.5" transform="rotate(90 112.896 15)" fill="#A7D2DE" fill-opacity="0.5"/>
</g>
<g style="mix-blend-mode:darken">
<rect x="41.0015" width="227.024" height="92.7732" rx="46.3866" transform="rotate(22.8097 41.0015 0)" fill="#A7D2DE" fill-opacity="0.5"/>
</g>
<g filter="url(#filter0_d_121_30)">
<rect x="108.401" y="59.1738" width="132.091" height="92.7732" rx="46.3866" transform="rotate(5.35944 108.401 59.1738)" fill="#CF393B"/>
</g>
<g style="mix-blend-mode:multiply">
<rect y="194.774" width="213.289" height="92.7732" rx="46.3866" transform="rotate(-45 0 194.774)" fill="#9AD3DA" fill-opacity="0.5"/>
</g>
<g style="mix-blend-mode:multiply">
<rect x="69.9629" y="218.939" width="197.829" height="92.7732" rx="46.3866" transform="rotate(-108.235 69.9629 218.939)" fill="#6FA6C5" fill-opacity="0.5"/>
</g>
<path d="M31.264 341.096H21.28L30.304 284.072C31.168 278.504 35.2 275.528 40.384 275.528C44.992 275.528 48.928 277.736 50.368 282.824L62.752 327.656C62.944 328.52 63.136 328.808 63.616 328.808C64.192 328.808 64.288 328.52 64.576 327.656L76.864 283.016C78.208 277.928 82.336 275.624 86.944 275.624C92.032 275.624 95.968 278.696 96.832 284.36L104.992 341H95.104L88 287.432C87.808 286.088 87.424 285.224 86.368 285.224C85.504 285.224 84.928 285.896 84.64 287.144L71.392 333.224C70.336 337.064 67.264 338.984 63.616 338.984C60.16 338.984 56.896 337.064 55.84 333.416L42.688 287.048C42.304 285.704 41.824 285.128 40.96 285.128C40.096 285.128 39.424 285.8 39.232 287.336L31.264 341.096ZM120.009 276.68H129.801V341H120.009V276.68ZM157.615 341H148.303V284.744C148.303 278.888 152.143 275.528 157.039 275.528C160.975 275.528 163.663 277.064 165.487 280.424L192.559 331.016C192.847 331.88 193.039 332.264 193.615 332.264C193.999 332.264 194.095 332.072 194.095 331.496V276.68H203.407V333.032C203.407 338.888 199.279 342.152 194.863 342.152C191.215 342.152 188.047 340.616 186.223 337.16L159.247 286.472C159.055 285.704 158.863 285.32 158.383 285.32C157.807 285.32 157.615 285.704 157.615 286.472V341ZM278.745 308.552C278.745 328.712 263.673 341 243.801 341H222.009V276.68H244.281C264.921 276.68 278.745 289.448 278.745 308.552ZM268.665 308.552C268.665 294.92 258.681 285.704 244.281 285.704H231.801V332.072H243.801C257.817 332.072 268.665 323.24 268.665 308.552Z" fill="black"/>
<path d="M25.064 469.032H22.984L26.056 449.64C26.312 448.104 27.432 447.304 28.776 447.304C29.96 447.304 31.048 447.912 31.432 449.288L36.04 465.544C36.168 466.024 36.264 466.216 36.552 466.216C36.84 466.216 36.936 466.024 37.064 465.544L41.64 449.352C42.024 447.976 43.112 447.336 44.328 447.336C45.64 447.336 46.76 448.168 46.984 449.736L49.768 469H47.72L45.096 450.312C45 449.608 44.808 449.16 44.232 449.16C43.784 449.16 43.464 449.544 43.304 450.184L38.568 466.472C38.28 467.464 37.48 467.976 36.552 467.976C35.656 467.976 34.792 467.464 34.536 466.504L29.768 450.12C29.576 449.448 29.352 449.128 28.872 449.128C28.392 449.128 28.072 449.512 27.944 450.28L25.064 469.032ZM61.542 467.432C64.934 467.432 66.886 464.52 66.886 461.192V453.48H68.87V461.416C68.87 465.896 66.118 469.32 61.542 469.32C57.03 469.32 54.31 465.864 54.31 461.384V453.48H56.294V461.224C56.294 464.52 58.182 467.432 61.542 467.432ZM74.4188 446.344H76.4028V469H74.4188V446.344ZM88.4258 469.352C85.1298 469.352 83.2098 467.208 83.2098 463.912V455.272H79.9138V453.48H83.2098V449.352H85.1938V453.48H91.5298V455.272H85.1938V463.848C85.1938 466.152 86.5378 467.496 88.5858 467.496C89.7058 467.496 90.7618 467.08 91.5298 466.44V468.36C90.7298 468.968 89.5778 469.352 88.4258 469.352ZM97.942 449.736C97.142 449.736 96.502 449.096 96.502 448.264C96.502 447.432 97.142 446.792 97.942 446.792C98.742 446.792 99.35 447.432 99.35 448.264C99.35 449.096 98.742 449.736 97.942 449.736ZM96.95 453.48H98.934V469H96.95V453.48ZM111.693 469.352C107.053 469.352 103.565 465.704 103.565 461.256C103.565 456.68 107.021 453.128 111.597 453.128C114.221 453.128 116.525 454.472 117.837 456.456L117.869 446.344H119.853V461.256C119.853 465.8 116.269 469.352 111.693 469.352ZM111.693 467.464C115.149 467.464 117.869 464.648 117.869 461.256C117.869 457.864 115.149 455.016 111.693 455.016C108.269 455.016 105.549 457.864 105.549 461.256C105.549 464.648 108.269 467.464 111.693 467.464ZM126.598 449.736C125.798 449.736 125.158 449.096 125.158 448.264C125.158 447.432 125.798 446.792 126.598 446.792C127.398 446.792 128.006 447.432 128.006 448.264C128.006 449.096 127.398 449.736 126.598 449.736ZM125.606 453.48H127.59V469H125.606V453.48ZM152.349 453.096C156.733 453.096 159.261 456.488 159.261 460.808V469H157.277V461.096C157.277 457.832 155.581 454.984 152.253 454.984C149.053 454.984 147.293 457.704 147.293 460.968V469H145.309V461C145.309 457.704 143.517 454.984 140.253 454.984C136.925 454.984 135.325 457.832 135.325 461.064V469H133.341V460.84C133.341 456.488 135.805 453.096 140.125 453.096C143.357 453.096 145.661 454.984 146.365 457.704C147.069 454.984 149.245 453.096 152.349 453.096ZM171.253 469.32C166.677 469.32 163.253 465.832 163.253 461.192C163.253 456.712 166.357 453.096 170.901 453.096C175.413 453.096 178.357 456.328 178.357 460.744V461.928H165.205C165.525 465.096 167.957 467.432 171.253 467.432C173.365 467.432 175.285 466.632 176.405 464.648L177.941 465.48C176.533 468.04 174.101 469.32 171.253 469.32ZM165.269 460.328H176.373C176.309 457.096 174.037 454.984 170.901 454.984C167.669 454.984 165.557 457.32 165.269 460.328ZM189.952 455.016C186.432 455.016 184.544 457.928 184.544 461.224V469H182.56V461.064C182.56 456.584 185.28 453.128 189.952 453.128C194.72 453.128 197.504 456.552 197.504 461.032V469H195.52V461.256C195.52 457.928 193.568 455.016 189.952 455.016ZM207.807 469.288C205.183 469.288 203.007 468.168 201.855 465.896L203.487 465C204.415 466.792 205.855 467.432 207.743 467.432C209.823 467.432 211.551 466.536 211.551 464.744C211.551 460.84 202.335 463.56 202.335 457.672C202.335 455.08 204.703 453.256 207.679 453.256C210.207 453.256 212.127 454.344 213.151 456.2L211.519 457.128C210.687 455.56 209.343 455.112 207.711 455.112C205.983 455.112 204.319 456.04 204.319 457.64C204.319 461.416 213.535 458.824 213.535 464.712C213.535 467.528 210.879 469.288 207.807 469.288ZM219.505 449.736C218.705 449.736 218.065 449.096 218.065 448.264C218.065 447.432 218.705 446.792 219.505 446.792C220.305 446.792 220.913 447.432 220.913 448.264C220.913 449.096 220.305 449.736 219.505 449.736ZM218.513 453.48H220.497V469H218.513V453.48ZM233.288 469.32C228.68 469.32 225.128 465.672 225.128 461.192C225.128 456.744 228.744 453.128 233.288 453.128C237.928 453.128 241.416 456.776 241.416 461.192C241.416 465.672 237.864 469.32 233.288 469.32ZM233.288 467.432C236.712 467.432 239.432 464.616 239.432 461.224C239.432 457.832 236.712 455.016 233.288 455.016C229.832 455.016 227.112 457.832 227.112 461.224C227.112 464.616 229.832 467.432 233.288 467.432ZM252.796 455.016C249.276 455.016 247.388 457.928 247.388 461.224V469H245.404V461.064C245.404 456.584 248.124 453.128 252.796 453.128C257.564 453.128 260.348 456.552 260.348 461.032V469H258.364V461.256C258.364 457.928 256.412 455.016 252.796 455.016ZM272.218 469.32C267.738 469.32 264.346 465.672 264.346 461.192C264.346 456.776 267.834 453.128 272.474 453.128C277.05 453.128 280.634 456.648 280.634 461.192V469H278.746V465.384C277.562 467.72 275.162 469.32 272.218 469.32ZM272.474 467.432C275.93 467.432 278.65 464.616 278.65 461.224C278.65 457.832 275.93 455.016 272.474 455.016C269.05 455.016 266.33 457.832 266.33 461.224C266.33 464.616 269.05 467.432 272.474 467.432ZM286.388 446.344H288.372V469H286.388V446.344ZM24.52 480.624H26.568V502H24.52V480.624ZM40.0458 488.016C36.5258 488.016 34.6378 490.928 34.6378 494.224V502H32.6538V494.064C32.6538 489.584 35.3738 486.128 40.0458 486.128C44.8138 486.128 47.5978 489.552 47.5978 494.032V502H45.6138V494.256C45.6138 490.928 43.6618 488.016 40.0458 488.016ZM57.9003 502.288C55.2763 502.288 53.1003 501.168 51.9483 498.896L53.5803 498C54.5083 499.792 55.9483 500.432 57.8363 500.432C59.9163 500.432 61.6443 499.536 61.6443 497.744C61.6443 493.84 52.4283 496.56 52.4283 490.672C52.4283 488.08 54.7963 486.256 57.7723 486.256C60.3003 486.256 62.2203 487.344 63.2443 489.2L61.6123 490.128C60.7803 488.56 59.4363 488.112 57.8043 488.112C56.0763 488.112 54.4123 489.04 54.4123 490.64C54.4123 494.416 63.6283 491.824 63.6283 497.712C63.6283 500.528 60.9723 502.288 57.9003 502.288ZM69.5983 482.736C68.7983 482.736 68.1583 482.096 68.1583 481.264C68.1583 480.432 68.7983 479.792 69.5983 479.792C70.3983 479.792 71.0063 480.432 71.0063 481.264C71.0063 482.096 70.3983 482.736 69.5983 482.736ZM68.6063 486.48H70.5903V502H68.6063V486.48ZM83.1573 509.488C80.0213 509.488 77.2373 508.112 75.8293 505.52L77.4933 504.592C78.6133 506.544 80.6933 507.6 83.1253 507.6C86.9013 507.6 89.5253 504.848 89.5253 500.656V498.48C88.4373 500.656 86.1333 502.256 83.1573 502.256C78.7093 502.256 75.2213 498.704 75.2213 494.192C75.2213 489.776 78.7093 486.128 83.3493 486.128C87.9253 486.128 91.5093 489.648 91.5093 494.192V500.72C91.5093 506.032 88.0213 509.488 83.1573 509.488ZM83.3493 500.368C86.7733 500.368 89.5253 497.584 89.5253 494.16C89.5253 490.768 86.7733 488.016 83.3493 488.016C79.9573 488.016 77.2053 490.768 77.2053 494.16C77.2053 497.584 79.9573 500.368 83.3493 500.368ZM99.2465 502H97.2625V479.344H99.2465V489.2C100.399 487.376 102.575 486.128 105.103 486.128C109.519 486.128 112.142 489.232 112.142 493.872V502H110.159V494.032C110.159 490.8 108.367 488.016 104.847 488.016C101.615 488.016 99.2465 490.64 99.2465 494.192V502ZM123.52 502.352C120.224 502.352 118.304 500.208 118.304 496.912V488.272H115.008V486.48H118.304V482.352H120.288V486.48H126.624V488.272H120.288V496.848C120.288 499.152 121.632 500.496 123.68 500.496C124.8 500.496 125.856 500.08 126.624 499.44V501.36C125.824 501.968 124.672 502.352 123.52 502.352ZM136.119 502.288C133.495 502.288 131.319 501.168 130.167 498.896L131.799 498C132.727 499.792 134.167 500.432 136.055 500.432C138.135 500.432 139.863 499.536 139.863 497.744C139.863 493.84 130.647 496.56 130.647 490.672C130.647 488.08 133.015 486.256 135.991 486.256C138.519 486.256 140.439 487.344 141.463 489.2L139.831 490.128C138.999 488.56 137.655 488.112 136.023 488.112C134.295 488.112 132.631 489.04 132.631 490.64C132.631 494.416 141.847 491.824 141.847 497.712C141.847 500.528 139.191 502.288 136.119 502.288ZM157.005 482.736C156.205 482.736 155.565 482.096 155.565 481.264C155.565 480.432 156.205 479.792 157.005 479.792C157.805 479.792 158.413 480.432 158.413 481.264C158.413 482.096 157.805 482.736 157.005 482.736ZM156.013 486.48H157.997V502H156.013V486.48ZM171.14 488.016C167.62 488.016 165.732 490.928 165.732 494.224V502H163.748V494.064C163.748 489.584 166.468 486.128 171.14 486.128C175.908 486.128 178.692 489.552 178.692 494.032V502H176.708V494.256C176.708 490.928 174.756 488.016 171.14 488.016ZM190.082 502.352C186.786 502.352 184.866 500.208 184.866 496.912V488.272H181.57V486.48H184.866V482.352H186.85V486.48H193.186V488.272H186.85V496.848C186.85 499.152 188.194 500.496 190.242 500.496C191.362 500.496 192.418 500.08 193.186 499.44V501.36C192.386 501.968 191.234 502.352 190.082 502.352ZM204.538 502.32C199.93 502.32 196.378 498.672 196.378 494.192C196.378 489.744 199.994 486.128 204.538 486.128C209.178 486.128 212.666 489.776 212.666 494.192C212.666 498.672 209.114 502.32 204.538 502.32ZM204.538 500.432C207.962 500.432 210.682 497.616 210.682 494.224C210.682 490.832 207.962 488.016 204.538 488.016C201.082 488.016 198.362 490.832 198.362 494.224C198.362 497.616 201.082 500.432 204.538 500.432ZM26.184 535H24.232V516.088C24.232 514.296 25.288 513.304 26.792 513.304C28.008 513.304 28.744 513.816 29.288 514.904L38.152 532.728C38.472 533.368 38.664 533.624 39.112 533.624C39.496 533.624 39.688 533.336 39.688 532.76V513.624H41.64V532.568C41.64 534.36 40.456 535.32 39.176 535.32C38.056 535.32 37.16 534.84 36.616 533.72L27.72 515.736C27.464 515.192 27.272 514.936 26.888 514.936C26.408 514.936 26.184 515.288 26.184 515.96V535ZM54.315 535.32C49.739 535.32 46.315 531.832 46.315 527.192C46.315 522.712 49.419 519.096 53.963 519.096C58.475 519.096 61.419 522.328 61.419 526.744V527.928H48.267C48.587 531.096 51.019 533.432 54.315 533.432C56.427 533.432 58.347 532.632 59.467 530.648L61.003 531.48C59.595 534.04 57.163 535.32 54.315 535.32ZM48.331 526.328H59.435C59.371 523.096 57.099 520.984 53.963 520.984C50.731 520.984 48.619 523.32 48.331 526.328ZM72.8545 533.432C76.2465 533.432 78.1985 530.52 78.1985 527.192V519.48H80.1825V527.416C80.1825 531.896 77.4305 535.32 72.8545 535.32C68.3425 535.32 65.6225 531.864 65.6225 527.384V519.48H67.6065V527.224C67.6065 530.52 69.4945 533.432 72.8545 533.432ZM87.294 535H85.31V525.432C85.31 521.816 87.39 519.256 90.974 519.256C91.934 519.256 92.862 519.448 93.662 519.832V521.848C92.894 521.4 92.03 521.176 91.134 521.176C88.766 521.176 87.294 522.872 87.294 525.528V535ZM103.131 535.32C98.5233 535.32 94.9713 531.672 94.9713 527.192C94.9713 522.744 98.5873 519.128 103.131 519.128C107.771 519.128 111.259 522.776 111.259 527.192C111.259 531.672 107.707 535.32 103.131 535.32ZM103.131 533.432C106.555 533.432 109.275 530.616 109.275 527.224C109.275 523.832 106.555 521.016 103.131 521.016C99.6753 521.016 96.9553 523.832 96.9553 527.224C96.9553 530.616 99.6753 533.432 103.131 533.432ZM117.232 542.136H115.248V527.192C115.248 522.648 118.832 519.128 123.408 519.128C128.048 519.128 131.536 522.776 131.536 527.192C131.536 531.768 128.08 535.352 123.472 535.352C120.848 535.352 118.544 534.008 117.232 531.992V542.136ZM123.408 533.464C126.832 533.464 129.552 530.616 129.552 527.224C129.552 523.832 126.832 521.016 123.408 521.016C119.952 521.016 117.232 523.832 117.232 527.224C117.232 530.616 119.952 533.464 123.408 533.464ZM140.713 535.288C138.089 535.288 135.913 534.168 134.761 531.896L136.393 531C137.321 532.792 138.761 533.432 140.649 533.432C142.729 533.432 144.457 532.536 144.457 530.744C144.457 526.84 135.241 529.56 135.241 523.672C135.241 521.08 137.609 519.256 140.585 519.256C143.113 519.256 145.033 520.344 146.057 522.2L144.425 523.128C143.593 521.56 142.249 521.112 140.617 521.112C138.889 521.112 137.225 522.04 137.225 523.64C137.225 527.416 146.441 524.824 146.441 530.712C146.441 533.528 143.785 535.288 140.713 535.288ZM157.531 542.488C154.587 542.488 151.867 541.24 150.459 538.648L152.123 537.72C153.211 539.672 155.291 540.6 157.499 540.6C161.339 540.6 163.227 537.656 163.195 533.88V531.704C162.235 533.848 160.347 535.256 157.627 535.256C153.083 535.256 150.715 532.184 150.715 527.704V519.48H152.699V527.512C152.699 531 154.459 533.368 157.819 533.368C161.179 533.368 163.195 530.584 163.195 527.16V519.48H165.179V533.88C165.179 538.904 162.523 542.488 157.531 542.488ZM177.407 535.32C173.119 535.352 169.503 531.704 169.503 527.224C169.503 522.744 173.119 519.128 177.407 519.128C180.159 519.128 182.655 520.344 184.095 522.968L182.431 523.928C181.311 521.944 179.487 521.016 177.407 521.016C174.207 521.016 171.487 523.832 171.487 527.224C171.487 530.616 174.207 533.432 177.407 533.432C179.487 533.432 181.311 532.504 182.431 530.552L184.095 531.48C182.655 534.104 180.159 535.32 177.407 535.32ZM190.403 535H188.419V512.344H190.403V522.2C191.555 520.376 193.731 519.128 196.259 519.128C200.675 519.128 203.299 522.232 203.299 526.872V535H201.315V527.032C201.315 523.8 199.523 521.016 196.003 521.016C192.771 521.016 190.403 523.64 190.403 527.192V535ZM210.036 515.736C209.236 515.736 208.596 515.096 208.596 514.264C208.596 513.432 209.236 512.792 210.036 512.792C210.836 512.792 211.444 513.432 211.444 514.264C211.444 515.096 210.836 515.736 210.036 515.736ZM209.044 519.48H211.028V535H209.044V519.48ZM223.531 535.32C219.051 535.32 215.659 531.672 215.659 527.192C215.659 522.776 219.147 519.128 223.787 519.128C228.363 519.128 231.947 522.648 231.947 527.192V535H230.059V531.384C228.875 533.72 226.475 535.32 223.531 535.32ZM223.787 533.432C227.243 533.432 229.963 530.616 229.963 527.224C229.963 523.832 227.243 521.016 223.787 521.016C220.363 521.016 217.643 523.832 217.643 527.224C217.643 530.616 220.363 533.432 223.787 533.432ZM243.332 535.352C240.036 535.352 238.116 533.208 238.116 529.912V521.272H234.82V519.48H238.116V515.352H240.1V519.48H246.436V521.272H240.1V529.848C240.1 532.152 241.444 533.496 243.492 533.496C244.612 533.496 245.668 533.08 246.436 532.44V534.36C245.636 534.968 244.484 535.352 243.332 535.352ZM253.2 535H251.216V525.432C251.216 521.816 253.296 519.256 256.88 519.256C257.84 519.256 258.768 519.448 259.568 519.832V521.848C258.8 521.4 257.936 521.176 257.04 521.176C254.672 521.176 253.2 522.872 253.2 525.528V535ZM263.38 515.736C262.58 515.736 261.94 515.096 261.94 514.264C261.94 513.432 262.58 512.792 263.38 512.792C264.18 512.792 264.788 513.432 264.788 514.264C264.788 515.096 264.18 515.736 263.38 515.736ZM262.388 519.48H264.372V535H262.388V519.48ZM276.907 535.32C272.619 535.352 269.003 531.704 269.003 527.224C269.003 522.744 272.619 519.128 276.907 519.128C279.659 519.128 282.155 520.344 283.595 522.968L281.931 523.928C280.811 521.944 278.987 521.016 276.907 521.016C273.707 521.016 270.987 523.832 270.987 527.224C270.987 530.616 273.707 533.432 276.907 533.432C278.987 533.432 280.811 532.504 281.931 530.552L283.595 531.48C282.155 534.104 279.659 535.32 276.907 535.32ZM42.824 557.152C42.824 563.936 37.704 568 31.24 568H24.52V546.624H31.464C38.248 546.624 42.824 550.848 42.824 557.152ZM40.712 557.152C40.712 552 36.872 548.544 31.464 548.544H26.568V566.08H31.24C36.424 566.08 40.712 562.784 40.712 557.152ZM48.7858 548.736C47.9858 548.736 47.3458 548.096 47.3458 547.264C47.3458 546.432 47.9858 545.792 48.7858 545.792C49.5858 545.792 50.1938 546.432 50.1938 547.264C50.1938 548.096 49.5858 548.736 48.7858 548.736ZM47.7938 552.48H49.7778V568H47.7938V552.48ZM60.7128 568.288C58.0888 568.288 55.9128 567.168 54.7608 564.896L56.3928 564C57.3208 565.792 58.7608 566.432 60.6488 566.432C62.7288 566.432 64.4568 565.536 64.4568 563.744C64.4568 559.84 55.2408 562.56 55.2408 556.672C55.2408 554.08 57.6088 552.256 60.5848 552.256C63.1128 552.256 65.0328 553.344 66.0568 555.2L64.4248 556.128C63.5928 554.56 62.2488 554.112 60.6168 554.112C58.8888 554.112 57.2248 555.04 57.2248 556.64C57.2248 560.416 66.4408 557.824 66.4408 563.712C66.4408 566.528 63.7848 568.288 60.7128 568.288ZM77.8188 568.32C73.2108 568.32 69.6588 564.672 69.6588 560.192C69.6588 555.744 73.2748 552.128 77.8188 552.128C82.4588 552.128 85.9468 555.776 85.9468 560.192C85.9468 564.672 82.3948 568.32 77.8188 568.32ZM77.8188 566.432C81.2428 566.432 83.9628 563.616 83.9628 560.224C83.9628 556.832 81.2428 554.016 77.8188 554.016C74.3628 554.016 71.6428 556.832 71.6428 560.224C71.6428 563.616 74.3628 566.432 77.8188 566.432ZM91.919 568H89.935V558.432C89.935 554.816 92.015 552.256 95.599 552.256C96.559 552.256 97.487 552.448 98.287 552.832V554.848C97.519 554.4 96.655 554.176 95.759 554.176C93.391 554.176 91.919 555.872 91.919 558.528V568ZM107.724 568.352C103.084 568.352 99.5963 564.704 99.5963 560.256C99.5963 555.68 103.052 552.128 107.628 552.128C110.252 552.128 112.556 553.472 113.868 555.456L113.9 545.344H115.884V560.256C115.884 564.8 112.3 568.352 107.724 568.352ZM107.724 566.464C111.18 566.464 113.9 563.648 113.9 560.256C113.9 556.864 111.18 554.016 107.724 554.016C104.3 554.016 101.58 556.864 101.58 560.256C101.58 563.648 104.3 566.464 107.724 566.464ZM127.878 568.32C123.302 568.32 119.878 564.832 119.878 560.192C119.878 555.712 122.982 552.096 127.526 552.096C132.038 552.096 134.982 555.328 134.982 559.744V560.928H121.83C122.15 564.096 124.582 566.432 127.878 566.432C129.99 566.432 131.91 565.632 133.03 563.648L134.566 564.48C133.158 567.04 130.726 568.32 127.878 568.32ZM121.894 559.328H132.998C132.934 556.096 130.662 553.984 127.526 553.984C124.294 553.984 122.182 556.32 121.894 559.328ZM141.169 568H139.185V558.432C139.185 554.816 141.265 552.256 144.849 552.256C145.809 552.256 146.737 552.448 147.537 552.832V554.848C146.769 554.4 145.905 554.176 145.009 554.176C142.641 554.176 141.169 555.872 141.169 558.528V568ZM155.244 568.288C152.62 568.288 150.444 567.168 149.292 564.896L150.924 564C151.852 565.792 153.292 566.432 155.18 566.432C157.26 566.432 158.988 565.536 158.988 563.744C158.988 559.84 149.772 562.56 149.772 556.672C149.772 554.08 152.14 552.256 155.116 552.256C157.644 552.256 159.564 553.344 160.588 555.2L158.956 556.128C158.124 554.56 156.78 554.112 155.148 554.112C153.42 554.112 151.756 555.04 151.756 556.64C151.756 560.416 160.972 557.824 160.972 563.712C160.972 566.528 158.316 568.288 155.244 568.288Z" fill="black"/>
<path d="M34.488 351.68V406.976H66.456V416H33.72C27.192 416 24.696 412.64 24.696 407.168V351.68H34.488ZM72.2685 416L89.8365 359.456C91.7565 353.408 96.4605 350.528 101.837 350.528C107.309 350.528 112.013 353.408 113.933 359.456L131.501 416H121.517L116.812 400.256L86.8605 400.352L82.1565 416H72.2685ZM98.2845 362.336L89.5485 391.424H114.221L105.581 362.336C104.909 360.32 103.757 359.36 101.933 359.36C100.013 359.36 98.8605 360.32 98.2845 362.336ZM166.776 416H144.696V351.68H167.256C183 351.68 192.6 357.92 192.6 368.768C192.6 376.64 188.376 381.728 181.56 383.84C188.952 385.568 193.56 389.984 193.56 398.24C193.56 411.584 181.752 416 166.776 416ZM154.488 359.84V379.904H167.544C178.296 379.904 182.808 376.64 182.808 369.44C182.808 363.104 177.24 359.84 167.736 359.84H154.488ZM154.488 388.064V407.84H167.256C176.088 407.84 183.768 406.112 183.768 397.568C183.768 390.56 178.584 388.064 167.544 388.064H154.488Z" fill="black"/>
<defs>
<filter id="filter0_d_121_30" x="99.8628" y="63.3005" width="139.926" height="104.452" filterUnits="userSpaceOnUse" color-interpolation-filters="sRGB">
<feFlood flood-opacity="0" result="BackgroundImageFix"/>
<feColorMatrix in="SourceAlpha" type="matrix" values="0 0 0 0 0 0 0 0 0 0 0 0 0 0 0 0 0 0 127 0" result="hardAlpha"/>
<feOffset dy="4"/>
<feGaussianBlur stdDeviation="2"/>
<feComposite in2="hardAlpha" operator="out"/>
<feColorMatrix type="matrix" values="0 0 0 0 0 0 0 0 0 0 0 0 0 0 0 0 0 0 0.25 0"/>
<feBlend mode="normal" in2="BackgroundImageFix" result="effect1_dropShadow_121_30"/>
<feBlend mode="normal" in="SourceGraphic" in2="effect1_dropShadow_121_30" result="shape"/>
</filter>
</defs>
</svg>
